<?xml version="1.0" encoding="UTF-8" standalone="no"?>
<!DOCTYPE svg PUBLIC "-//W3C//DTD SVG 1.1//EN" "http://www.w3.org/Graphics/SVG/1.1/DTD/svg11.dtd">
<svg width="100%" height="100%" viewBox="0 0 1400 485" version="1.1" xmlns="http://www.w3.org/2000/svg" xmlns:xlink="http://www.w3.org/1999/xlink" xml:space="preserve" xmlns:serif="http://www.serif.com/" style="fill-rule:evenodd;clip-rule:evenodd;stroke-linejoin:round;stroke-miterlimit:2;">
    <g transform="matrix(1,0,0,1,-8.75378e-06,43)">
        <g transform="matrix(1,0,0,1,195.092,-69.6716)">
            <g transform="matrix(12.7572,0,0,12.7572,-0.841983,-255.409)">
                <path d="M12.853,31.201C12.867,37.369 12.896,40.295 12.946,40.33C12.984,40.357 13.056,40.611 13.103,40.894C13.152,41.177 13.235,41.507 13.295,41.628C13.35,41.745 13.441,41.98 13.498,42.145C13.554,42.31 13.663,42.539 13.74,42.646C13.823,42.755 13.884,42.86 13.884,42.882C13.884,43.091 15.181,44.532 15.368,44.532C15.418,44.532 15.495,44.594 15.542,44.669C15.591,44.751 15.671,44.812 15.724,44.812C15.773,44.812 15.888,44.876 15.971,44.951C16.062,45.027 16.24,45.129 16.369,45.176C16.498,45.223 16.602,45.286 16.602,45.309C16.602,45.336 16.815,45.413 17.076,45.482C17.335,45.553 17.562,45.633 17.585,45.663C17.634,45.732 18.784,45.931 19.163,45.931C19.328,45.931 19.466,45.958 19.466,45.999C19.466,46.044 21.633,45.922 22.056,45.875C22.483,45.83 22.925,45.748 23.038,45.69C23.147,45.634 23.423,45.536 23.643,45.47C23.862,45.407 24.055,45.332 24.077,45.304C24.097,45.283 24.243,45.2 24.407,45.128C24.572,45.057 24.704,44.972 24.704,44.936L24.792,44.881C24.875,44.881 25.329,44.54 25.788,44.13C26.063,43.883 26.522,43.311 26.522,43.212L26.59,43.129C26.658,43.129 26.805,42.882 27.085,42.293C27.388,41.639 27.434,41.522 27.512,41.127C27.555,40.907 27.614,40.706 27.641,40.687C27.773,40.597 27.847,38.982 27.847,36.249L27.847,33.29L23.252,33.29L23.23,36.342C23.208,38.698 23.183,39.395 23.114,39.417C23.068,39.433 23.032,39.499 23.032,39.567C23.032,40.442 22.083,41.416 21.052,41.602C19.878,41.823 19.059,41.508 18.261,40.551C18.165,40.436 17.931,39.733 17.931,39.562C17.931,39.499 17.89,39.435 17.843,39.418C17.778,39.397 17.755,38.445 17.734,35.046L17.714,30.706L27.851,30.706L27.851,27.076L17.726,27.076L17.726,22.112L12.83,22.112L12.847,31.195" style="fill:rgb(28,9,80);fill-rule:nonzero;"/>
            </g>
            <g transform="matrix(12.7572,0,0,12.7572,-0.841983,-255.409)">
                <path d="M31.611,31.266C31.625,37.434 31.654,40.36 31.704,40.395C31.742,40.422 31.814,40.676 31.861,40.959C31.91,41.242 31.993,41.572 32.053,41.693C32.108,41.81 32.199,42.045 32.256,42.21C32.312,42.375 32.421,42.604 32.498,42.711C32.581,42.82 32.642,42.925 32.642,42.947C32.642,43.156 33.939,44.597 34.126,44.597C34.176,44.597 34.253,44.659 34.3,44.734C34.349,44.816 34.429,44.877 34.482,44.877C34.531,44.877 34.646,44.941 34.729,45.016C34.82,45.092 34.998,45.194 35.127,45.241C35.256,45.288 35.36,45.351 35.36,45.374C35.36,45.401 35.573,45.478 35.834,45.547C36.093,45.618 36.32,45.698 36.343,45.728C36.392,45.797 37.542,45.996 37.921,45.996C38.086,45.996 38.224,46.023 38.224,46.064C38.224,46.109 40.391,45.987 40.814,45.94C41.241,45.895 41.683,45.813 41.796,45.755C41.905,45.699 42.181,45.601 42.401,45.535C42.62,45.472 42.813,45.397 42.835,45.369C42.855,45.348 43.001,45.265 43.165,45.193C43.33,45.122 43.462,45.037 43.462,45.001L43.55,44.946C43.633,44.946 44.087,44.605 44.546,44.195C44.821,43.948 45.28,43.376 45.28,43.277L45.348,43.194C45.416,43.194 45.563,42.947 45.843,42.358C46.146,41.704 46.192,41.587 46.27,41.192C46.313,40.972 46.372,40.771 46.399,40.752C46.531,40.662 46.605,39.047 46.605,36.314L46.605,33.355L42.01,33.355L41.988,36.407C41.966,38.763 41.941,39.46 41.872,39.482C41.826,39.498 41.79,39.564 41.79,39.632C41.79,40.507 40.841,41.481 39.81,41.667C38.636,41.888 37.817,41.573 37.019,40.616C36.923,40.501 36.689,39.798 36.689,39.627C36.689,39.564 36.648,39.5 36.601,39.483C36.536,39.462 36.513,38.51 36.492,35.111L36.472,30.771L46.609,30.771L46.609,27.141L36.484,27.141L36.484,22.177L31.588,22.177L31.605,31.26M55.733,26.664C55.595,26.68 55.43,26.719 55.348,26.757C55.274,26.793 54.991,26.856 54.721,26.9C54.451,26.942 54.138,27.018 54.023,27.07C53.907,27.12 53.649,27.216 53.445,27.279C53.244,27.342 53.079,27.417 53.079,27.45C53.079,27.477 52.95,27.543 52.793,27.596C52.639,27.651 52.491,27.734 52.474,27.783C52.455,27.838 52.397,27.876 52.348,27.876C52.21,27.876 51.468,28.522 51.231,28.85L50.901,29.29C50.832,29.367 50.777,29.463 50.777,29.497C50.777,29.533 50.714,29.689 50.634,29.854C50.453,30.222 50.29,30.899 50.29,31.278C50.29,31.443 50.257,31.591 50.219,31.616C50.131,31.671 50.125,32.378 50.211,32.543C50.25,32.609 50.31,32.914 50.349,33.222C50.459,34.075 51.069,35.213 51.627,35.614L51.842,35.796C51.891,35.846 52.029,35.947 52.144,36.017L52.419,36.208C52.84,36.53 53.86,37.042 54.256,37.13C54.382,37.157 54.484,37.204 54.484,37.232C54.484,37.26 54.745,37.342 55.062,37.414C55.378,37.486 55.667,37.568 55.708,37.596C55.747,37.623 56.043,37.7 56.368,37.77C56.698,37.835 56.981,37.915 57,37.94C57.017,37.967 57.325,38.049 57.679,38.119C58.037,38.188 58.325,38.272 58.325,38.304L58.44,38.359C58.586,38.359 59.326,38.585 59.375,38.642C59.392,38.669 59.628,38.744 59.897,38.816C60.164,38.884 60.4,38.964 60.42,38.989C60.439,39.016 60.574,39.072 60.722,39.127C62.276,39.63 61.621,41.668 59.795,42.006C59.561,42.05 59.372,42.11 59.372,42.144C59.372,42.221 57.466,42.218 57.381,42.144C57.345,42.106 57.114,42.041 56.87,41.996C55.957,41.823 55.063,41.143 54.89,40.483C54.843,40.313 54.78,40.174 54.752,40.174C54.719,40.174 54.697,40.018 54.697,39.825L54.697,39.469L49.581,39.469L49.581,39.936C49.581,40.431 49.741,41.311 49.851,41.449C49.884,41.493 49.967,41.691 50.033,41.889C50.094,42.09 50.192,42.29 50.247,42.334C50.302,42.381 50.349,42.457 50.349,42.504C50.349,42.752 51.553,44.027 52.142,44.402L52.373,44.566C52.464,44.668 53.217,45.05 53.481,45.13C53.641,45.174 53.773,45.239 53.773,45.262C53.773,45.289 54.015,45.364 54.312,45.427C54.609,45.495 54.909,45.581 54.978,45.619C55.129,45.702 56.538,45.893 56.994,45.893C57.179,45.893 57.352,45.921 57.371,45.959C57.426,46.041 59.502,46.056 59.502,45.971C59.502,45.938 59.777,45.893 60.112,45.869C60.843,45.818 61.666,45.676 61.666,45.594C61.666,45.567 61.743,45.539 61.839,45.539C62.095,45.539 62.87,45.312 62.978,45.209C63.033,45.159 63.115,45.117 63.17,45.117C63.28,45.117 63.527,44.991 63.673,44.856C63.728,44.806 63.81,44.768 63.857,44.768C64.195,44.768 65.65,43.277 65.81,42.76C65.837,42.672 65.893,42.603 65.92,42.603C65.953,42.603 66.035,42.392 66.104,42.13C66.173,41.874 66.252,41.647 66.28,41.627C66.519,41.462 66.519,38.311 66.28,38.134C66.252,38.118 66.178,37.92 66.11,37.7C66.041,37.474 65.959,37.296 65.925,37.296C65.886,37.296 65.837,37.228 65.815,37.145C65.705,36.801 64.591,35.847 64.036,35.619C63.898,35.564 63.753,35.481 63.706,35.437C63.662,35.393 63.417,35.319 63.164,35.272C62.916,35.223 62.707,35.162 62.707,35.135C62.707,35.102 62.459,35.025 62.148,34.951C61.84,34.882 61.59,34.805 61.59,34.78C61.59,34.753 61.329,34.676 61.012,34.607C60.696,34.535 60.402,34.453 60.361,34.42C60.319,34.392 60.036,34.31 59.728,34.249C59.426,34.189 59.151,34.112 59.109,34.084C59.07,34.056 58.771,33.974 58.449,33.902C58.119,33.83 57.836,33.754 57.817,33.729C57.798,33.702 57.547,33.625 57.259,33.556C56.967,33.487 56.717,33.408 56.698,33.38C56.678,33.352 56.5,33.278 56.299,33.215C56.107,33.146 55.93,33.072 55.92,33.045C55.906,33.017 55.782,32.94 55.645,32.869C55.494,32.792 55.334,32.635 55.26,32.484C55.189,32.346 55.106,32.22 55.076,32.209C54.746,32.058 55.172,31.027 55.7,30.705C56.382,30.292 59.363,30.237 59.754,30.628C59.809,30.683 59.911,30.724 59.98,30.724C60.112,30.724 60.821,31.431 60.821,31.563C60.821,31.604 60.882,31.764 60.959,31.92C61.03,32.068 61.11,32.319 61.138,32.47L61.182,32.75L65.989,32.75L65.989,32.47C65.989,32.316 65.956,32.195 65.917,32.195C65.878,32.195 65.848,32.085 65.848,31.953C65.848,31.64 65.656,30.661 65.579,30.558C65.546,30.514 65.463,30.316 65.4,30.118C65.334,29.92 65.235,29.72 65.18,29.673L65.078,29.508C65.078,29.021 63.345,27.555 62.416,27.258C62.209,27.192 62.025,27.12 62.003,27.093C61.986,27.066 61.893,27.024 61.797,27.002L61.343,26.892C61.189,26.848 60.947,26.815 60.807,26.815C60.669,26.815 60.537,26.774 60.521,26.724C60.494,26.641 56.352,26.576 55.72,26.65" style="fill:rgb(28,9,80);fill-rule:nonzero;"/>
            </g>
        </g>
        <g transform="matrix(1,0,0,1,34.9825,-16.5932)">
            <text x="59.648px" y="431.806px" style="font-family:'ArialMT', 'Arial', sans-serif;font-size:180px;fill:rgb(28,9,80);">techiaith.cymru</text>
        </g>
    </g>
</svg>
